{
  "accessors": [
    {
      "bufferView": 2,
      "componentType": 5126,
      "count": 762,
      "max": [
        16.451539993286133,
        16.451539993286133,
        16.451520919799805
      ],
      "min": [
        -16.451539993286133,
        -16.451539993286133,
        -16.451520919799805
      ],
      "type": "VEC3"
    },
    {
      "bufferView": 2,
      "byteOffset": 9144,
      "componentType": 5126,
      "count": 762,
      "max": [
        1.0,
        1.0,
        1.0
      ],
      "min": [
        -1.0,
        -1.0,
        -1.0
      ],
      "type": "VEC3"
    },
    {
      "bufferView": 0,
      "componentType": 5125,
      "count": 4560,
      "type": "SCALAR"
    },
    {
      "bufferView": 2,
      "byteOffset": 18288,
      "componentType": 5126,
      "count": 5162,
      "max": [
        14.77970027923584,
        14.77970027923584,
        12.719880104064941
      ],
      "min": [
        -14.77970027923584,
        -14.77970027923584,
        -13.525850296020508
      ],
      "type": "VEC3"
    },
    {
      "bufferView": 2,
      "byteOffset": 80232,
      "componentType": 5126,
      "count": 5162,
      "max": [
        1.0,
        1.0,
        1.0
      ],
      "min": [
        -1.0,
        -1.0,
        -1.0
      ],
      "type": "VEC3"
    },
    {
      "bufferView": 1,
      "componentType": 5126,
      "count": 5162,
      "max": [
        0.9933000206947327,
        0.9932000041007996
      ],
      "min": [
        0.006550000049173832,
        0.005410000216215849
      ],
      "type": "VEC2"
    },
    {
      "bufferView": 0,
      "byteOffset": 18240,
      "componentType": 5125,
      "count": 19440,
      "type": "SCALAR"
    },
    {
      "bufferView": 2,
      "byteOffset": 142176,
      "componentType": 5126,
      "count": 2160,
      "max": [
        14.656390190124512,
        14.656390190124512,
        0.41655001044273376
      ],
      "min": [
        -14.656390190124512,
        -14.656390190124512,
        -8.900979995727539
      ],
      "type": "VEC3"
    },
    {
      "bufferView": 2,
      "byteOffset": 168096,
      "componentType": 5126,
      "count": 2160,
      "max": [
        1.0,
        1.0,
        0.9974969029426575
      ],
      "min": [
        -1.0,
        -1.0,
        -0.9948832988739014
      ],
      "type": "VEC3"
    },
    {
      "bufferView": 1,
      "byteOffset": 41296,
      "componentType": 5126,
      "count": 2160,
      "max": [
        0.4719099998474121,
        0.9925699830055237
      ],
      "min": [
        0.2338699996471405,
        0.5456100106239319
      ],
      "type": "VEC2"
    },
    {
      "bufferView": 0,
      "byteOffset": 96000,
      "componentType": 5125,
      "count": 7680,
      "type": "SCALAR"
    },
    {
      "bufferView": 2,
      "byteOffset": 194016,
      "componentType": 5126,
      "count": 17432,
      "max": [
        20.607070922851563,
        13.50669002532959,
        36.12464904785156
      ],
      "min": [
        -20.607070922851563,
        -13.50669002532959,
        -94.47752380371094
      ],
      "type": "VEC3"
    },
    {
      "bufferView": 2,
      "byteOffset": 403200,
      "componentType": 5126,
      "count": 17432,
      "max": [
        0.9999987483024597,
        0.9999985098838806,
        1.0
      ],
      "min": [
        -0.9999987483024597,
        -0.9999985098838806,
        -1.0
      ],
      "type": "VEC3"
    },
    {
      "bufferView": 1,
      "byteOffset": 58576,
      "componentType": 5126,
      "count": 17432,
      "max": [
        0.19222000241279602,
        0.9905400276184082
      ],
      "min": [
        0.003379999892786145,
        0.0022700000554323196
      ],
      "type": "VEC2"
    },
    {
      "bufferView": 0,
      "byteOffset": 126720,
      "componentType": 5125,
      "count": 103680,
      "type": "SCALAR"
    },
    {
      "bufferView": 2,
      "byteOffset": 612384,
      "componentType": 5126,
      "count": 3800,
      "max": [
        16.222280502319336,
        12.50903034210205,
        16.056150436401367
      ],
      "min": [
        -16.2222900390625,
        -12.50903034210205,
        -16.300830841064453
      ],
      "type": "VEC3"
    },
    {
      "bufferView": 2,
      "byteOffset": 657984,
      "componentType": 5126,
      "count": 3800,
      "max": [
        0.9996689558029175,
        0.7096074223518372,
        1.0
      ],
      "min": [
        -0.9996689558029175,
        -0.7096074223518372,
        -1.0
      ],
      "type": "VEC3"
    },
    {
      "bufferView": 1,
      "byteOffset": 198032,
      "componentType": 5126,
      "count": 3800,
      "max": [
        0.3163500130176544,
        0.36316999793052673
      ],
      "min": [
        0.1996999979019165,
        0.0065100002102553844
      ],
      "type": "VEC2"
    },
    {
      "bufferView": 0,
      "byteOffset": 541440,
      "componentType": 5125,
      "count": 21888,
      "type": "SCALAR"
    },
    {
      "bufferView": 3,
      "componentType": 5126,
      "count": 2,
      "max": [
        7.5
      ],
      "min": [
        0.0
      ],
      "type": "SCALAR"
    },
    {
      "bufferView": 4,
      "componentType": 5126,
      "count": 2,
      "max": [
        0.0,
        0.0,
        0.0
      ],
      "min": [
        0.0,
        0.0,
        0.0
      ],
      "type": "VEC3"
    },
    {
      "bufferView": 3,
      "byteOffset": 8,
      "componentType": 5126,
      "count": 141,
      "max": [
        7.5
      ],
      "min": [
        0.0
      ],
      "type": "SCALAR"
    },
    {
      "bufferView": 5,
      "componentType": 5126,
      "count": 141,
      "max": [
        0.8062800168991089,
        0.9268100261688232,
        0.9876899719238281,
        0.9876899719238281
      ],
      "min": [
        -0.8703100085258484,
        -0.7026200294494629,
        -0.15643000602722168,
        -0.006219999864697456
      ],
      "type": "VEC4"
    },
    {
      "bufferView": 3,
      "byteOffset": 572,
      "componentType": 5126,
      "count": 2,
      "max": [
        7.5
      ],
      "min": [
        0.0
      ],
      "type": "SCALAR"
    },
    {
      "bufferView": 4,
      "byteOffset": 24,
      "componentType": 5126,
      "count": 2,
      "max": [
        1.0,
        1.0,
        1.0
      ],
      "min": [
        1.0,
        1.0,
        1.0
      ],
      "type": "VEC3"
    }
  ],
  "animations": [
    {
      "channels": [
        {
          "sampler": 0,
          "target": {
            "node": 10,
            "path": "translation"
          }
        },
        {
          "sampler": 1,
          "target": {
            "node": 10,
            "path": "rotation"
          }
        },
        {
          "sampler": 2,
          "target": {
            "node": 10,
            "path": "scale"
          }
        }
      ],
      "name": "Revolve",
      "samplers": [
        {
          "input": 19,
          "interpolation": "LINEAR",
          "output": 20
        },
        {
          "input": 21,
          "interpolation": "LINEAR",
          "output": 22
        },
        {
          "input": 23,
          "interpolation": "LINEAR",
          "output": 24
        }
      ]
    }
  ],
  "asset": {
    "extras": {
      "author": "Jay Weeks (https://sketchfab.com/jpweeks)",
      "license": "CC-BY-4.0 (http://creativecommons.org/licenses/by/4.0/)",
      "source": "https://sketchfab.com/3d-models/cosmos-imagination-spaceship-41fc699cb4a447f7bccac36fcefa70b5",
      "title": "Cosmos Imagination Spaceship"
    },
    "generator": "Sketchfab-12.68.0",
    "version": "2.0"
  },
  "bufferViews": [
    {
      "buffer": 0,
      "byteLength": 628992,
      "name": "floatBufferViews",
      "target": 34963
    },
    {
      "buffer": 0,
      "byteLength": 228432,
      "byteOffset": 628992,
      "byteStride": 8,
      "name": "floatBufferViews",
      "target": 34962
    },
    {
      "buffer": 0,
      "byteLength": 703584,
      "byteOffset": 857424,
      "byteStride": 12,
      "name": "floatBufferViews",
      "target": 34962
    },
    {
      "buffer": 0,
      "byteLength": 580,
      "byteOffset": 1561008,
      "name": "floatBufferViews"
    },
    {
      "buffer": 0,
      "byteLength": 48,
      "byteOffset": 1561588,
      "byteStride": 12,
      "name": "floatBufferViews"
    },
    {
      "buffer": 0,
      "byteLength": 2256,
      "byteOffset": 1561636,
      "byteStride": 16,
      "name": "floatBufferViews"
    }
  ],
  "buffers": [
    {
      "byteLength": 1563892,
      "uri": "scene.bin"
    }
  ],
  "images": [
    {
      "uri": "textures/cockpit_platform_baseColor.jpeg"
    },
    {
      "uri": "textures/cockpit_platform_emissive.jpeg"
    }
  ],
  "materials": [
    {
      "alphaMode": "BLEND",
      "doubleSided": true,
      "name": "canopy",
      "pbrMetallicRoughness": {
        "baseColorFactor": [
          0.13563332965520566,
          0.24228112246555486,
          0.24228112246555486,
          0.2
        ],
        "roughnessFactor": 0.0
      }
    },
    {
      "emissiveFactor": [
        1.0,
        1.0,
        1.0
      ],
      "emissiveTexture": {
        "index": 1
      },
      "name": "cockpit_platform",
      "pbrMetallicRoughness": {
        "baseColorTexture": {
          "index": 0
        },
        "metallicFactor": 0.86,
        "roughnessFactor": 0.2
      }
    },
    {
      "name": "cockpit_rings",
      "pbrMetallicRoughness": {
        "baseColorFactor": [
          0.07036009569659588,
          0.07036009569659588,
          0.07036009569659588,
          1.0
        ],
        "roughnessFactor": 0.02
      }
    },
    {
      "name": "hull",
      "pbrMetallicRoughness": {
        "baseColorFactor": [
          0.07149847734860362,
          0.07149847734860362,
          0.07149847734860362,
          1.0
        ],
        "roughnessFactor": 0.02
      }
    },
    {
      "name": "hull_interior",
      "pbrMetallicRoughness": {
        "baseColorFactor": [
          0.007726100576177697,
          0.007726100576177697,
          0.007726100576177697,
          1.0
        ],
        "metallicFactor": 0.61,
        "roughnessFactor": 0.0
      }
    }
  ],
  "meshes": [
    {
      "name": "cockpit_canopy_0",
      "primitives": [
        {
          "attributes": {
            "NORMAL": 1,
            "POSITION": 0
          },
          "indices": 2,
          "material": 0,
          "mode": 4
        }
      ]
    },
    {
      "name": "cockpit_platform_0",
      "primitives": [
        {
          "attributes": {
            "NORMAL": 4,
            "POSITION": 3,
            "TEXCOORD_0": 5
          },
          "indices": 6,
          "material": 1,
          "mode": 4
        }
      ]
    },
    {
      "name": "cockpit_rings_0",
      "primitives": [
        {
          "attributes": {
            "NORMAL": 8,
            "POSITION": 7,
            "TEXCOORD_0": 9
          },
          "indices": 10,
          "material": 2,
          "mode": 4
        }
      ]
    },
    {
      "name": "hull_0",
      "primitives": [
        {
          "attributes": {
            "NORMAL": 12,
            "POSITION": 11,
            "TEXCOORD_0": 13
          },
          "indices": 14,
          "material": 3,
          "mode": 4
        }
      ]
    },
    {
      "name": "hull_interior_0",
      "primitives": [
        {
          "attributes": {
            "NORMAL": 16,
            "POSITION": 15,
            "TEXCOORD_0": 17
          },
          "indices": 18,
          "material": 4,
          "mode": 4
        }
      ]
    }
  ],
  "nodes": [
    {
      "children": [
        1
      ],
      "matrix": [
        0.0810382217168808,
        0.0,
        0.0,
        0.0,
        0.0,
        1.799409992495189e-17,
        -0.0810382217168808,
        0.0,
        0.0,
        0.0810382217168808,
        1.799409992495189e-17,
        0.0,
        0.0,
        0.0,
        0.0,
        1.0
      ],
      "name": "Sketchfab_model"
    },
    {
      "children": [
        2
      ],
      "name": "Root"
    },
    {
      "children": [
        3,
        10
      ],
      "matrix": [
        0.95106,
        0.3090200000000001,
        0.0,
        0.0,
        -0.3090200000000001,
        0.95106,
        0.0,
        0.0,
        0.0,
        0.0,
        1.0,
        0.0,
        0.0,
        0.0,
        0.0,
        1.0
      ],
      "name": "ship"
    },
    {
      "children": [
        4,
        6,
        8
      ],
      "matrix": [
        0.95106,
        -0.3090200000000001,
        0.0,
        0.0,
        0.3090200000000001,
        0.95106,
        0.0,
        0.0,
        0.0,
        0.0,
        1.0,
        0.0,
        0.0,
        0.0,
        0.0,
        1.0
      ],
      "name": "cockpit"
    },
    {
      "children": [
        5
      ],
      "name": "cockpit_canopy"
    },
    {
      "mesh": 0,
      "name": "cockpit_canopy_0"
    },
    {
      "children": [
        7
      ],
      "name": "cockpit_platform"
    },
    {
      "mesh": 1,
      "name": "cockpit_platform_0"
    },
    {
      "children": [
        9
      ],
      "name": "cockpit_rings"
    },
    {
      "mesh": 2,
      "name": "cockpit_rings_0"
    },
    {
      "children": [
        11,
        12
      ],
      "name": "hull",
      "rotation": [
        0.0,
        0.0,
        -0.15642987191677094,
        0.9876891374588013
      ]
    },
    {
      "mesh": 3,
      "name": "hull_0"
    },
    {
      "children": [
        13
      ],
      "name": "hull_interior"
    },
    {
      "mesh": 4,
      "name": "hull_interior_0"
    }
  ],
  "samplers": [
    {
      "magFilter": 9729,
      "minFilter": 9987,
      "wrapS": 10497,
      "wrapT": 10497
    }
  ],
  "scene": 0,
  "scenes": [
    {
      "name": "Sketchfab_Scene",
      "nodes": [
        0
      ]
    }
  ],
  "textures": [
    {
      "sampler": 0,
      "source": 0
    },
    {
      "sampler": 0,
      "source": 1
    }
  ]
}
